<svg width="69" height="37" viewBox="0 0 69 37" fill="none" xmlns="http://www.w3.org/2000/svg">
<path d="M59.3828 36.8247C58.2305 36.8256 57.1038 36.4846 56.1453 35.8451C55.1867 35.2055 54.4394 34.296 53.9979 33.2316C53.5563 32.1672 53.4403 30.9958 53.6646 29.8655C53.8889 28.7353 54.4434 27.6969 55.2579 26.8818C56.0724 26.0667 57.1104 25.5114 58.2405 25.2863C59.3707 25.0612 60.5421 25.1763 61.6068 25.6171C62.6715 26.0579 63.5816 26.8045 64.2218 27.7626C64.8621 28.7206 65.2039 29.8471 65.2039 30.9994C65.2031 32.5434 64.5897 34.024 63.4984 35.1162C62.407 36.2084 60.9268 36.8229 59.3828 36.8247ZM59.3828 27.2991C58.6508 27.2982 57.9349 27.5145 57.3259 27.9206C56.7168 28.3267 56.2418 28.9043 55.9611 29.5804C55.6804 30.2565 55.6065 31.0006 55.7488 31.7187C55.8911 32.4368 56.2432 33.0965 56.7605 33.6144C57.2779 34.1324 57.9372 34.4852 58.6551 34.6283C59.373 34.7715 60.1172 34.6984 60.7936 34.4185C61.47 34.1385 62.0482 33.6643 62.455 33.0556C62.8618 32.447 63.0789 31.7314 63.0789 30.9994C63.0785 30.0189 62.6891 29.0785 61.9962 28.3848C61.3032 27.691 60.3633 27.3006 59.3828 27.2991Z" fill="#BA9E76"/>
<path d="M28.684 36.8247C27.5316 36.8259 26.4048 36.4852 25.4461 35.8457C24.4874 35.2063 23.7399 34.2969 23.2981 33.2326C22.8563 32.1683 22.7401 30.9968 22.9643 29.8664C23.1884 28.736 23.7428 27.6975 24.5572 26.8823C25.3717 26.067 26.4097 25.5117 27.5398 25.2864C28.67 25.0612 29.8415 25.1762 30.9063 25.617C31.9711 26.0577 32.8812 26.8043 33.5216 27.7624C34.1619 28.7205 34.5037 29.847 34.5037 30.9994C34.5026 32.5431 33.8893 34.0232 32.7983 35.1153C31.7073 36.2073 30.2277 36.8221 28.684 36.8247ZM28.684 27.2991C27.9519 27.2979 27.236 27.514 26.6267 27.9199C26.0174 28.3258 25.5423 28.9034 25.2613 29.5794C24.9804 30.2555 24.9063 30.9997 25.0484 31.7178C25.1906 32.436 25.5426 33.0959 26.0598 33.6139C26.5771 34.132 27.2364 34.485 27.9544 34.6282C28.6723 34.7715 29.4166 34.6985 30.0931 34.4186C30.7696 34.1387 31.3478 33.6644 31.7547 33.0558C32.1615 32.4471 32.3787 31.7315 32.3787 30.9994C32.3779 30.0192 31.9886 29.0793 31.2961 28.3857C30.6035 27.6921 29.6642 27.3013 28.684 27.2991Z" fill="#BA9E76"/>
<path d="M67.0462 32.0618H64.1406C63.8588 32.0618 63.5886 31.9499 63.3893 31.7506C63.1901 31.5514 63.0781 31.2811 63.0781 30.9993C63.0781 30.7175 63.1901 30.4473 63.3893 30.248C63.5886 30.0488 63.8588 29.9368 64.1406 29.9368H66.7459V24.3027C66.7452 23.541 66.5502 22.7921 66.1792 22.1267L60.4276 11.8148C60.3784 11.7268 60.3067 11.6535 60.2198 11.6025C60.1329 11.5514 60.0339 11.5245 59.9331 11.5244H52.0947V29.9411H54.6249C54.9067 29.9411 55.1769 30.053 55.3762 30.2523C55.5755 30.4515 55.6874 30.7218 55.6874 31.0036C55.6874 31.2854 55.5755 31.5556 55.3762 31.7549C55.1769 31.9541 54.9067 32.0661 54.6249 32.0661H51.0322C50.7504 32.0661 50.4802 31.9541 50.2809 31.7549C50.0817 31.5556 49.9697 31.2854 49.9697 31.0036V10.4619C49.9697 10.1801 50.0817 9.90987 50.2809 9.71061C50.4802 9.51136 50.7504 9.39941 51.0322 9.39941H59.9331C60.4125 9.39918 60.8832 9.52695 61.2966 9.76953C61.71 10.0121 62.0512 10.3607 62.2848 10.7792L68.0351 21.0926C68.5817 22.0742 68.8689 23.1791 68.8695 24.3027V30.2386C68.8687 30.7219 68.6764 31.1852 68.3346 31.527C67.9929 31.8687 67.5295 32.0611 67.0462 32.0618Z" fill="#BA9E76"/>
<path d="M23.9265 32.0618H13.7393C13.4575 32.0618 13.1872 31.9499 12.988 31.7506C12.7887 31.5514 12.6768 31.2811 12.6768 30.9993V22.828C12.6768 22.5462 12.7887 22.276 12.988 22.0767C13.1872 21.8774 13.4575 21.7655 13.7393 21.7655C14.0211 21.7655 14.2913 21.8774 14.4906 22.0767C14.6898 22.276 14.8018 22.5462 14.8018 22.828V29.9368H23.9265C24.2083 29.9368 24.4786 30.0488 24.6778 30.248C24.8771 30.4473 24.989 30.7175 24.989 30.9993C24.989 31.2811 24.8771 31.5514 24.6778 31.7506C24.4786 31.9499 24.2083 32.0618 23.9265 32.0618Z" fill="#BA9E76"/>
<path d="M13.7393 19.0583C13.4575 19.0583 13.1872 18.9463 12.988 18.7471C12.7887 18.5478 12.6768 18.2776 12.6768 17.9958V10.8615C12.6768 10.5797 12.7887 10.3094 12.988 10.1101C13.1872 9.91089 13.4575 9.79895 13.7393 9.79895C14.0211 9.79895 14.2913 9.91089 14.4906 10.1101C14.6898 10.3094 14.8018 10.5797 14.8018 10.8615V18C14.8006 18.2811 14.6882 18.5502 14.4891 18.7486C14.2899 18.9469 14.0203 19.0583 13.7393 19.0583Z" fill="#BA9E76"/>
<path d="M51.033 32.0618H33.4423C33.1605 32.0618 32.8902 31.9499 32.691 31.7506C32.4917 31.5513 32.3798 31.2811 32.3798 30.9993C32.3798 30.7175 32.4917 30.4473 32.691 30.248C32.8902 30.0487 33.1605 29.9368 33.4423 29.9368H49.9705V2.14038H14.8018V6.51646C14.8018 6.79826 14.6898 7.06851 14.4906 7.26776C14.2913 7.46702 14.0211 7.57896 13.7393 7.57896C13.4575 7.57896 13.1872 7.46702 12.988 7.26776C12.7887 7.06851 12.6768 6.79826 12.6768 6.51646V1.94488C12.6775 1.43313 12.8812 0.942576 13.2432 0.580846C13.6052 0.219116 14.0959 0.0157555 14.6077 0.0153809H50.166C50.6775 0.0161303 51.1679 0.219657 51.5295 0.581346C51.8912 0.943035 52.0948 1.43338 52.0955 1.94488V30.9993C52.0955 31.2811 51.9836 31.5513 51.7843 31.7506C51.585 31.9499 51.3148 32.0618 51.033 32.0618Z" fill="#BA9E76"/>
<path d="M17.9398 23.8905H4.45459C4.1728 23.8905 3.90255 23.7786 3.70329 23.5793C3.50403 23.38 3.39209 23.1098 3.39209 22.828C3.39209 22.5462 3.50403 22.276 3.70329 22.0767C3.90255 21.8774 4.1728 21.7655 4.45459 21.7655H17.9398C18.2216 21.7655 18.4919 21.8774 18.6911 22.0767C18.8904 22.276 19.0023 22.5462 19.0023 22.828C19.0023 23.1098 18.8904 23.38 18.6911 23.5793C18.4919 23.7786 18.2216 23.8905 17.9398 23.8905Z" fill="#BA9E76"/>
<path d="M9.28184 13.4482H1.93359C1.6518 13.4482 1.38155 13.3363 1.18229 13.137C0.983035 12.9378 0.871094 12.6675 0.871094 12.3857C0.871094 12.1039 0.983035 11.8337 1.18229 11.6344C1.38155 11.4352 1.6518 11.3232 1.93359 11.3232H9.28184C9.56364 11.3232 9.83389 11.4352 10.0331 11.6344C10.2324 11.8337 10.3443 12.1039 10.3443 12.3857C10.3443 12.6675 10.2324 12.9378 10.0331 13.137C9.83389 13.3363 9.56364 13.4482 9.28184 13.4482Z" fill="#BA9E76"/>
<path d="M21.0643 7.57898H8.09326C7.81147 7.57898 7.54122 7.46704 7.34196 7.26778C7.1427 7.06852 7.03076 6.79827 7.03076 6.51648C7.03076 6.23469 7.1427 5.96444 7.34196 5.76518C7.54122 5.56592 7.81147 5.45398 8.09326 5.45398H21.0643C21.3461 5.45398 21.6163 5.56592 21.8156 5.76518C22.0148 5.96444 22.1268 6.23469 22.1268 6.51648C22.1268 6.79827 22.0148 7.06852 21.8156 7.26778C21.6163 7.46704 21.3461 7.57898 21.0643 7.57898Z" fill="#BA9E76"/>
</svg>
